<?xml version="1.0" standalone="no"?>
<!DOCTYPE svg PUBLIC "-//W3C//DTD SVG 20010904//EN"
 "http://www.w3.org/TR/2001/REC-SVG-20010904/DTD/svg10.dtd">
<svg version="1.0" xmlns="http://www.w3.org/2000/svg"
 width="current" height="current" viewBox="0 0 32.000000 32.000000"
 preserveAspectRatio="xMidYMid meet">

<g transform="translate(0.000000,32.000000) scale(0.100000,-0.100000)"
fill="current" stroke="none">
<path d="M36 284 c-13 -12 -16 -39 -16 -124 0 -131 6 -140 86 -140 l54 0 0 60
c0 33 -4 60 -10 60 -5 0 -10 9 -10 20 0 11 5 20 10 20 6 0 10 10 10 23 0 31
18 47 52 47 21 0 28 -5 28 -20 0 -11 -7 -20 -15 -20 -8 0 -15 -7 -15 -15 0 -8
7 -15 15 -15 23 0 18 -37 -6 -43 -18 -5 -20 -12 -17 -59 3 -51 4 -53 34 -56
55 -5 64 15 64 138 0 142 2 140 -140 140 -85 0 -112 -3 -124 -16z"/>
</g>
</svg>
