<?xml version="1.0" standalone="no"?>
<!DOCTYPE svg PUBLIC "-//W3C//DTD SVG 20010904//EN"
 "http://www.w3.org/TR/2001/REC-SVG-20010904/DTD/svg10.dtd">
<svg version="1.0" xmlns="http://www.w3.org/2000/svg"
 width="64.000000pt" height="64.000000pt" viewBox="0 0 64.000000 64.000000"
 preserveAspectRatio="xMidYMid meet">

<g transform="translate(0.000000,64.000000) scale(0.100000,-0.100000)"
fill="current" stroke="none">
<path d="M0 321 c0 -76 2 -89 15 -85 9 4 15 20 16 43 l1 36 12 -35 c7 -19 19
-35 27 -35 19 0 20 156 2 163 -9 2 -13 -11 -14 -45 l0 -48 -17 44 c-29 76 -42
64 -42 -38z"/>
<path d="M117 403 c-4 -3 -7 -39 -7 -80 l0 -73 40 0 c29 0 40 4 40 15 0 9 -9
15 -25 15 -18 0 -25 5 -25 20 0 13 7 20 20 20 11 0 20 5 20 10 0 6 -9 10 -20
10 -13 0 -20 7 -20 20 0 15 7 20 25 20 16 0 25 6 25 15 0 10 -10 15 -33 15
-19 0 -37 -3 -40 -7z"/>
<path d="M210 395 c0 -8 5 -15 10 -15 6 0 10 -27 10 -60 0 -47 3 -60 15 -60
12 0 15 13 15 60 0 47 3 60 15 60 8 0 15 7 15 15 0 11 -11 15 -40 15 -29 0
-40 -4 -40 -15z"/>
<path d="M310 335 c0 -43 4 -75 10 -75 6 0 10 14 10 30 0 23 4 30 20 30 11 0
20 4 20 9 0 5 -9 11 -20 14 -29 8 -26 37 5 37 16 0 25 6 25 15 0 10 -11 15
-35 15 l-35 0 0 -75z"/>
<path d="M400 331 l0 -81 35 0 c24 0 35 5 35 15 0 8 -9 15 -20 15 -16 0 -19 8
-22 62 -2 38 -8 63 -15 66 -10 3 -13 -17 -13 -77z"/>
<path d="M497 403 c-4 -3 -7 -39 -7 -80 0 -58 3 -73 15 -73 12 0 15 16 15 80
0 73 -6 91 -23 73z"/>
<path d="M556 383 c9 -33 9 -77 -1 -115 -9 -34 8 -38 22 -6 l10 23 12 -23 c6
-12 18 -22 26 -22 11 0 11 7 -3 41 -16 41 -15 44 13 112 11 26 -20 22 -32 -5
l-10 -23 -12 23 c-17 32 -35 28 -25 -5z"/>
</g>
</svg>
