<?xml version="1.0" standalone="no"?>
<!DOCTYPE svg PUBLIC "-//W3C//DTD SVG 20010904//EN"
 "http://www.w3.org/TR/2001/REC-SVG-20010904/DTD/svg10.dtd">
<svg version="1.0" xmlns="http://www.w3.org/2000/svg"
 width="32.000000pt" height="32.000000pt" viewBox="0 0 32.000000 32.000000"
 preserveAspectRatio="xMidYMid meet">

<g transform="translate(0.000000,32.000000) scale(0.100000,-0.100000)"
fill="current" stroke="none">
<path d="M150 275 c0 -8 -6 -15 -14 -15 -27 0 -56 -50 -56 -95 0 -26 -6 -48
-15 -55 -27 -22 -18 -40 20 -40 24 0 37 -6 45 -20 6 -11 19 -20 30 -20 11 0
24 9 30 20 8 14 21 20 45 20 39 0 42 7 20 36 -8 10 -15 38 -15 60 0 44 -30 94
-56 94 -8 0 -14 7 -14 15 0 8 -4 15 -10 15 -5 0 -10 -7 -10 -15z m52 -52 c12
-11 18 -30 18 -63 0 -25 5 -51 12 -58 9 -9 -7 -12 -72 -12 -65 0 -81 3 -72 12
7 7 12 32 12 57 0 52 21 81 58 81 14 0 34 -7 44 -17z m-30 -165 c-9 -9 -15 -9
-24 0 -9 9 -7 12 12 12 19 0 21 -3 12 -12z"/>
</g>
</svg>
