<?xml version="1.0" standalone="no"?>
<!DOCTYPE svg PUBLIC "-//W3C//DTD SVG 20010904//EN"
 "http://www.w3.org/TR/2001/REC-SVG-20010904/DTD/svg10.dtd">
<svg version="1.0" xmlns="http://www.w3.org/2000/svg"
 width="current" height="current" viewBox="0 0 128.000000 128.000000"
 preserveAspectRatio="xMidYMid meet">

<g transform="translate(0.000000,128.000000) scale(0.100000,-0.100000)"
fill="current" stroke="none">
<path d="M0 641 l0 -171 25 0 c24 0 24 2 27 93 l3 92 19 -55 c40 -114 42 -117
75 -112 l31 4 0 159 0 159 -30 0 -29 0 -3 -87 -3 -88 -31 85 c-27 76 -33 85
-57 88 l-27 3 0 -170z"/>
<path d="M230 655 l0 -156 73 3 c71 3 72 3 75 32 l4 29 -51 -7 -51 -7 0 41 c0
39 1 40 35 40 32 0 35 2 35 30 0 28 -3 30 -35 30 -33 0 -35 2 -35 35 l0 35 50
0 c47 0 50 2 50 25 0 24 -2 25 -75 25 l-75 0 0 -155z"/>
<path d="M410 785 c0 -21 5 -25 30 -25 l30 0 0 -125 0 -125 25 0 25 0 0 125 0
125 30 0 c25 0 30 4 30 25 0 25 -1 25 -85 25 -84 0 -85 0 -85 -25z"/>
<path d="M612 663 l3 -148 25 0 c24 0 25 3 28 63 l3 62 34 0 c31 0 35 3 35 25
0 22 -4 25 -35 25 -33 0 -35 2 -35 35 0 35 0 35 45 35 41 0 45 2 45 25 0 24
-2 25 -75 25 l-76 0 3 -147z"/>
<path d="M800 660 l0 -150 48 0 c26 0 57 -3 70 -6 19 -6 22 -3 22 25 0 30 -1
31 -45 31 l-45 0 0 125 0 125 -25 0 -25 0 0 -150z"/>
<path d="M990 655 l0 -155 25 0 25 0 0 155 0 155 -25 0 -25 0 0 -155z"/>
<path d="M1093 798 c3 -7 17 -43 32 -79 l26 -67 -30 -72 c-17 -40 -31 -76 -31
-81 0 -5 11 -9 25 -9 21 0 30 8 44 43 l19 42 21 -48 c20 -47 37 -62 64 -55 11
2 8 21 -19 90 l-34 87 35 80 34 81 -30 0 c-26 0 -33 -6 -49 -42 l-18 -43 -18
43 c-15 36 -21 42 -47 42 -19 0 -27 -4 -24 -12z"/>
</g>
</svg>
