<?xml version="1.0" standalone="no"?>
<!DOCTYPE svg PUBLIC "-//W3C//DTD SVG 20010904//EN"
 "http://www.w3.org/TR/2001/REC-SVG-20010904/DTD/svg10.dtd">
<svg version="1.0" xmlns="http://www.w3.org/2000/svg"
 width="current" height="current" viewBox="0 0 32.000000 32.000000"
 preserveAspectRatio="xMidYMid meet">

<g transform="translate(0.000000,32.000000) scale(0.100000,-0.100000)"
fill="current" stroke="none">
<path d="M88 274 c-30 -16 -58 -61 -58 -94 0 -34 28 -78 60 -95 35 -18 60 -19
95 -3 23 10 29 8 65 -27 52 -50 65 -37 15 15 -35 36 -37 42 -27 65 16 35 15
60 -3 95 -28 54 -94 74 -147 44z m113 -33 c39 -40 39 -82 0 -122 -20 -20 -39
-29 -61 -29 -43 0 -90 47 -90 90 0 22 9 41 29 61 20 20 39 29 61 29 22 0 41
-9 61 -29z"/>
</g>
</svg>
